<?xml version="1.0" encoding="utf-8"?>
<!-- Generator: Adobe Illustrator 15.0.0, SVG Export Plug-In . SVG Version: 6.00 Build 0)  -->
<!DOCTYPE svg PUBLIC "-//W3C//DTD SVG 1.0//EN" "http://www.w3.org/TR/2001/REC-SVG-20010904/DTD/svg10.dtd">
<svg version="1.0" id="Layer_1" xmlns="http://www.w3.org/2000/svg" xmlns:xlink="http://www.w3.org/1999/xlink" x="0px" y="0px"
	 width="841.89px" height="595.275px" viewBox="0 0 841.89 595.275" enable-background="new 0 0 841.89 595.275"
	 xml:space="preserve">
<path fill="#2F6573" d="M506.322,196.643l-0.504,86.307c0,4.542-1.011,8.58-3.029,12.618c-1.513,5.047-5.047,8.579-9.59,11.607
	c-5.046,3.026-10.6,5.047-17.664,5.552c-3.03,0-5.553,0.506-8.581,0.506c-13.122,0-25.74-3.031-37.347-8.077
	c-13.124-6.056-26.75-16.149-40.378-29.776l11.105-9.59c2.522,2.523,5.048,5.047,7.066,7.57c5.047,4.542,9.59,8.581,14.132,11.104
	c6.56,4.038,12.616,6.057,18.168,6.057c3.029,0,5.553-0.505,8.074-1.515c4.544-1.515,7.067-4.039,8.079-7.571
	c1.007-4.037,1.512-12.112,1.512-24.225c0-1.515,0-9.591,0-24.732c0-13.121,0-24.729,0-36.338L506.322,196.643z"/>
<path fill="#E18D39" d="M444.266,435.531c-4.479-1.601-39.36-8.319-37.44-14.72c2.56-8.64-6.72-23.36-8-32
	c-0.64-3.2-5.76-16.32-8.32-17.28c-15.04-5.439-24.959-32-31.04-25.92c-0.96,0.96-60.16,26.561-73.28,16.641
	c-8.96-7.041-16-13.44-22.08-23.681c-3.84-6.399,1.6-12.8,3.2-7.36c2.88,9.601,11.2,21.76,22.72,23.68
	c13.12,1.921,24.32-3.84,34.879-11.52c6.08-4.48,22.4-16,28.8-26.56c8-13.44,34.88-33.28,51.2-29.76
	c13.12,2.88,25.28,11.201,39.36,29.44c2.561,3.521,10.561,12.16,16.32,16.32c2.24,1.92,14.72,1.601,15.68-1.28
	c0.64-2.561,3.521-3.84,0.32-4.48c-4.16-0.639-8.641-5.119-8.641-5.76c0-1.279-2.24-1.92-2.24-3.84c-0.319-3.52,2.24-4.8,5.121-3.52
	c1.6,0.64,7.039,3.199,8.64,3.84c2.88,1.92,7.68,5.76,9.6,8.96c0.64,0.96,6.4,1.28,7.04,2.239c0.96,0.641,3.84,2.24,5.12,3.201
	c2.88,1.6,11.2,8.319,13.761,8.64c1.279,0,0.959,4.159-1.601,5.44c-2.24,0.959-11.2,1.92-12.8,0.959
	c-1.28-1.279-6.08-1.279-8.641-0.64c-2.56,0.64-12.8,7.04-15.359,9.28c-6.721,5.76-13.12,14.08-21.76,17.279
	c-1.601,0.641-8,8.96-8.641,9.921c-0.96,1.6-9.6,13.12-15.04,15.039c-5.44,1.921-8.64-0.96-9.6-3.84
	c-0.96-2.879,3.52-10.239,5.44-5.76c1.919,4.48,5.119,0,7.68-2.24c2.879-2.879,4.8-14.399,0.96-16.96
	c-4.8-3.199-4.48-6.72-6.081-4.479c-1.6,1.92-7.039,5.12-9.919,8.319c-2.88,2.881-2.561,20.8-2.24,23.681
	c1.92,12.479-6.08,16.319,14.4,23.04c2.239,0.96,60.8,17.92,56.64,21.76S449.386,437.131,444.266,435.531z"/>
<path fill="#2F6573" d="M389.458,299.604c-14.131,10.096-30.283,15.144-47.948,15.144c-21.702,0-40.376-6.562-57.537-19.685
	c-16.656-13.628-24.73-28.77-24.73-45.423c0-14.637,6.561-27.761,20.693-39.368c13.627-9.59,28.768-14.637,44.918-14.637
	c21.198,0,39.872,7.571,56.527,21.703c16.151,14.637,24.731,30.282,24.731,47.442C406.112,277.901,400.561,289.511,389.458,299.604z
	 M290.534,219.86c-2.018,1.515-3.028,3.532-3.028,6.562c0,7.065,5.047,16.15,14.637,27.253c9.59,11.104,20.188,20.694,32.806,28.77
	c13.123,9.084,24.73,13.625,33.815,13.625c4.038,0,7.571-1.008,10.599-3.027c2.524-2.02,3.533-5.046,3.533-8.579
	c0-7.57-5.047-16.656-15.141-27.759c-9.59-10.6-20.693-19.685-33.815-27.761c-13.628-8.076-24.731-12.113-33.312-12.113
	C296.591,216.831,293.057,217.842,290.534,219.86z"/>
</svg>
