<?xml version="1.0" encoding="utf-8"?>
<!DOCTYPE svg PUBLIC "-//W3C//DTD SVG 1.1//EN" "http://www.w3.org/Graphics/SVG/1.1/DTD/svg11.dtd">
<svg version="1.1" id="Layer_1" xmlns="http://www.w3.org/2000/svg" xmlns:xlink="http://www.w3.org/1999/xlink" x="0px" y="0px"
	 width="266px" height="266px" viewBox="0 0 266 266" enable-background="new 0 0 266 266" xml:space="preserve">
<rect display="none" stroke="#000000" width="266" height="266"/>
<path fill="#2F6573" d="M252.605,13.52l-0.504,86.308c0,4.542-1.013,8.579-3.029,12.618c-1.512,5.047-5.047,8.578-9.59,11.607
	c-5.045,3.024-10.601,5.047-17.664,5.551c-3.029,0-5.553,0.506-8.58,0.506c-13.123,0-25.74-3.03-37.348-8.076
	c-13.124-6.057-26.75-16.148-40.377-29.776l11.104-9.59c2.522,2.522,5.048,5.047,7.066,7.569c5.047,4.543,9.59,8.582,14.132,11.104
	c6.559,4.038,12.615,6.058,18.168,6.058c3.029,0,5.553-0.504,8.074-1.516c4.543-1.515,7.065-4.037,8.078-7.57
	c1.008-4.037,1.512-12.111,1.512-24.226c0-1.515,0-9.591,0-24.731c0-13.121,0-24.729,0-36.338L252.605,13.52z"/>
<path fill="#E18D39" d="M190.548,252.408c-4.479-1.602-39.358-8.318-37.438-14.721c2.56-8.641-6.72-23.359-8-32
	c-0.642-3.199-5.76-16.319-8.32-17.279c-15.04-5.439-24.959-32-31.04-25.92c-0.96,0.959-60.16,26.561-73.28,16.641
	c-8.959-7.041-16-13.439-22.08-23.682c-3.84-6.398,1.601-12.799,3.201-7.359c2.879,9.602,11.199,21.762,22.719,23.682
	c13.121,1.92,24.32-3.842,34.88-11.521c6.08-4.479,22.398-16,28.8-26.561c8-13.439,34.88-33.279,51.2-29.76
	c13.12,2.881,25.279,11.2,39.359,29.439c2.562,3.521,10.562,12.16,16.32,16.32c2.24,1.92,14.719,1.601,15.68-1.281
	c0.642-2.561,3.521-3.84,0.32-4.479c-4.16-0.64-8.641-5.119-8.641-5.761c0-1.278-2.24-1.92-2.24-3.84
	c-0.32-3.521,2.24-4.8,5.121-3.521c1.6,0.641,7.039,3.198,8.639,3.84c2.881,1.92,7.683,5.76,9.603,8.961
	c0.639,0.959,6.397,1.279,7.039,2.238c0.961,0.641,3.84,2.239,5.118,3.2c2.882,1.601,11.201,8.319,13.763,8.642
	c1.278,0,0.959,4.158-1.603,5.438c-2.237,0.959-11.199,1.92-12.799,0.959c-1.281-1.278-6.08-1.278-8.641-0.64
	c-2.562,0.64-12.802,7.039-15.359,9.279c-6.721,5.76-13.121,14.08-21.76,17.278c-1.603,0.642-8,8.96-8.642,9.921
	c-0.961,1.602-9.602,13.12-15.041,15.039c-5.438,1.921-8.641-0.96-9.6-3.84c-0.96-2.879,3.521-10.239,5.439-5.76
	c1.92,4.479,5.118,0,7.68-2.24c2.879-2.879,4.801-14.398,0.961-16.96c-4.801-3.199-4.48-6.72-6.082-4.479
	c-1.6,1.92-7.039,5.121-9.918,8.318c-2.88,2.882-2.562,20.801-2.24,23.682c1.92,12.479-6.08,16.318,14.401,23.041
	c2.238,0.959,60.799,17.92,56.639,21.76S195.669,254.01,190.548,252.408z"/>
<path fill="#2F6573" d="M135.741,116.48c-14.131,10.097-30.283,15.145-47.948,15.145c-21.702,0-40.376-6.563-57.537-19.686
	C13.6,98.313,5.526,83.169,5.526,66.518c0-14.639,6.562-27.763,20.692-39.369c13.627-9.59,28.769-14.637,44.919-14.637
	c21.196,0,39.87,7.57,56.525,21.702c16.151,14.638,24.731,30.282,24.731,47.442C152.396,94.777,146.844,106.389,135.741,116.48z
	 M36.817,36.736c-2.019,1.516-3.028,3.533-3.028,6.563c0,7.064,5.047,16.15,14.637,27.253c9.592,11.104,20.188,20.694,32.808,28.771
	c13.123,9.084,24.729,13.625,33.813,13.625c4.038,0,7.571-1.008,10.601-3.026c2.522-2.021,3.531-5.046,3.531-8.579
	c0-7.568-5.047-16.654-15.141-27.759c-9.59-10.601-20.693-19.685-33.813-27.761c-13.63-8.076-24.731-12.113-33.313-12.113
	C42.874,33.708,39.34,34.719,36.817,36.736z"/>
</svg>
