<?xml version="1.0" encoding="UTF-8" standalone="no"?>
<!-- Creator: CorelDRAW -->

<svg
   xmlns:dc="http://purl.org/dc/elements/1.1/"
   xmlns:cc="http://creativecommons.org/ns#"
   xmlns:rdf="http://www.w3.org/1999/02/22-rdf-syntax-ns#"
   xmlns:svg="http://www.w3.org/2000/svg"
   xmlns="http://www.w3.org/2000/svg"
   xmlns:sodipodi="http://sodipodi.sourceforge.net/DTD/sodipodi-0.dtd"
   xmlns:inkscape="http://www.inkscape.org/namespaces/inkscape"
   xml:space="preserve"
   width="2550px"
   height="3300px"
   style="shape-rendering:geometricPrecision; text-rendering:geometricPrecision; image-rendering:optimizeQuality; fill-rule:evenodd"
   viewBox="0 0 2550 3300"
   id="svg3147"
   version="1.1"
   inkscape:version="0.48.2 r9819"
   sodipodi:docname="installer_logo_v3.svg"
   inkscape:export-filename="/Volumes/DATA/jumps/ojlogo/installer_logo_v3.png"
   inkscape:export-xdpi="90"
   inkscape:export-ydpi="90"><metadata
   id="metadata3166"><rdf:RDF><cc:Work
       rdf:about=""><dc:format>image/svg+xml</dc:format><dc:type
         rdf:resource="http://purl.org/dc/dcmitype/StillImage" /><dc:title></dc:title></cc:Work></rdf:RDF></metadata><sodipodi:namedview
   pagecolor="#ffffff"
   bordercolor="#666666"
   borderopacity="1"
   objecttolerance="10"
   gridtolerance="10"
   guidetolerance="10"
   inkscape:pageopacity="0"
   inkscape:pageshadow="2"
   inkscape:window-width="1427"
   inkscape:window-height="856"
   id="namedview3164"
   showgrid="false"
   inkscape:zoom="1.17"
   inkscape:cx="589.19218"
   inkscape:cy="2601.9845"
   inkscape:window-x="0"
   inkscape:window-y="0"
   inkscape:window-maximized="0"
   inkscape:current-layer="layer4"
   showguides="true"
   inkscape:guide-bbox="true" />
 <defs
   id="defs3149">
  <style
   type="text/css"
   id="style3151">
   
    .fil0 {fill:#2B4957}
    .fil1 {fill:#E77817}
   
  </style>
 </defs>
 
<g
   inkscape:groupmode="layer"
   id="layer1"
   inkscape:label="frame"><rect
     style="fill:#ffffff;fill-opacity:1;stroke:#aaaaaa;stroke-width:0.99687952;stroke-opacity:1"
     id="rect3192"
     width="99.00312"
     height="399.00311"
     x="468.18027"
     y="432.31662" /></g><g
   inkscape:groupmode="layer"
   id="layer4"
   inkscape:label="script small"
   style="display:inline"><text
     xml:space="preserve"
     style="font-size:11px;font-style:normal;font-variant:normal;font-weight:normal;font-stretch:normal;text-align:start;line-height:125%;letter-spacing:0px;word-spacing:0px;writing-mode:lr-tb;text-anchor:start;fill:#e77817;fill-opacity:1;stroke:none;font-family:Sans;-inkscape-font-specification:Sans"
     x="520.11975"
     y="801.4729"
     id="text4067"
     sodipodi:linespacing="125%"><tspan
       sodipodi:role="line"
       x="521.55237"
       y="801.4729"
       style="font-size:9px;font-style:normal;font-variant:normal;font-weight:normal;font-stretch:normal;text-align:center;line-height:150%;writing-mode:lr-tb;text-anchor:middle;fill:#e77817;fill-opacity:1;font-family:Sans;-inkscape-font-specification:Sans"
       id="tspan4087">The Unified </tspan><tspan
       sodipodi:role="line"
       x="520.11975"
       y="814.9729"
       style="font-size:9px;font-style:normal;font-variant:normal;font-weight:normal;font-stretch:normal;text-align:center;line-height:150%;writing-mode:lr-tb;text-anchor:middle;fill:#e77817;fill-opacity:1;font-family:Sans;-inkscape-font-specification:Sans"
       id="tspan4083">Mapping Platform</tspan></text>
</g><g
   inkscape:groupmode="layer"
   id="layer2"
   inkscape:label="kangaroo"
   style="display:inline"><path
     style="fill:#e77817;fill-rule:evenodd"
     class="fil1"
     d="m 533.45983,638.44078 c -1.45152,-0.5184 -12.75264,-2.69568 -12.13056,-4.76928 0.82944,-2.79936 -2.17728,-7.56864 -2.592,-10.368 -0.20736,-1.0368 -1.86624,-5.28768 -2.69568,-5.59872 -4.87296,-1.76256 -8.08704,-10.368 -10.05696,-8.39808 -0.31104,0.31104 -19.49184,8.60544 -23.74272,5.39136 -2.90304,-2.28096 -5.184,-4.35456 -7.15392,-7.67232 -1.24416,-2.0736 0.5184,-4.1472 1.0368,-2.38464 0.93312,3.1104 3.6288,7.05024 7.36128,7.67232 4.25088,0.62208 7.87968,-1.24416 11.30112,-3.73248 1.96992,-1.45152 7.2576,-5.184 9.3312,-8.60544 2.592,-4.35456 11.30112,-10.78272 16.5888,-9.64224 4.25088,0.93312 8.19072,3.6288 12.75264,9.53856 0.82944,1.14048 3.42144,3.93984 5.28768,5.28768 0.72576,0.62208 4.76928,0.5184 5.08032,-0.41472 0.20736,-0.82944 1.14048,-1.24416 0.10368,-1.45152 -1.34784,-0.20736 -2.79936,-1.65888 -2.79936,-1.86624 0,-0.41472 -0.72576,-0.62208 -0.72576,-1.24416 -0.10368,-1.14048 0.72576,-1.5552 1.65888,-1.14048 0.5184,0.20736 2.28096,1.0368 2.79936,1.24416 0.93312,0.62208 2.48832,1.86624 3.1104,2.90304 0.20736,0.31104 2.0736,0.41472 2.28096,0.72576 0.31104,0.20736 1.24416,0.72576 1.65888,1.0368 0.93312,0.5184 3.6288,2.69568 4.45824,2.79936 0.41472,0 0.31104,1.34784 -0.5184,1.76256 -0.72576,0.31104 -3.6288,0.62208 -4.1472,0.31104 -0.41472,-0.41472 -1.96992,-0.41472 -2.79936,-0.20736 -0.82944,0.20736 -4.1472,2.28096 -4.97664,3.00672 -2.17728,1.86624 -4.25088,4.56192 -7.05024,5.59872 -0.5184,0.20736 -2.592,2.90304 -2.79936,3.21408 -0.31104,0.5184 -3.1104,4.25088 -4.87296,4.87296 -1.76256,0.62208 -2.79936,-0.31104 -3.1104,-1.24416 -0.31104,-0.93312 1.14048,-3.31776 1.76256,-1.86624 0.62208,1.45152 1.65888,0 2.48832,-0.72576 0.93312,-0.93312 1.5552,-4.6656 0.31104,-5.49504 -1.5552,-1.0368 -1.45152,-2.17728 -1.96992,-1.45152 -0.5184,0.62208 -2.28096,1.65888 -3.21408,2.69568 -0.93312,0.93312 -0.82944,6.7392 -0.72576,7.67232 0.62208,4.04352 -1.96992,5.28768 4.6656,7.46496 0.72576,0.31104 19.6992,5.80608 18.35136,7.05024 -1.34784,1.24416 -12.64896,-1.45152 -14.30784,-1.96992 z"
     id="path3158"
     inkscape:connector-curvature="0" /></g><g
   inkscape:groupmode="layer"
   id="layer3"
   inkscape:label="script oj"
   style="display:inline"><g
     style="fill-rule:evenodd;display:inline"
     id="Layer 1"
     transform="matrix(0.5184,0,0,0.5184,281.0648,243.03869)">
  <g
   id="g3154">
   <path
   style="fill:#2b4957"
   d="m 475.84282,791.74305 -0.2,34.2 c 0,1.8 -0.4,3.4 -1.2,5 -0.6,2 -2,3.4 -3.8,4.6 -2,1.2 -4.2,2 -7,2.2 -1.2,0 -2.2,0.2 -3.4,0.2 -5.2,0 -10.2,-1.2 -14.8,-3.2 -5.2,-2.4 -10.6,-6.4 -16,-11.8 l 4.4,-3.8 c 1,1 2,2 2.8,3 2,1.8 3.8,3.4 5.6,4.4 2.6,1.6 5,2.4 7.2,2.4 1.2,0 2.2,-0.2 3.2,-0.6 1.8,-0.6 2.8,-1.6 3.2,-3 0.4,-1.6 0.6,-4.8 0.6,-9.6 0,-0.6 0,-3.8 0,-9.8 0,-5.2 0,-9.8 0,-14.4 l 19.4,0.2 z"
   id="path4046"
   inkscape:connector-curvature="0" /><path
   style="fill:#2b4957"
   d="m 487.09282,883.77701 c 0,3 -1.2,5.8 -3.6,8.2 -4.4,4.6 -12.4,7 -23.8,7 -8.2,0 -14.2,-2 -18,-5.8 -2.4,-2.4 -3.8,-5.2 -4,-8 l 0,-32.6 6.8,0 0,31.8 c 0,2.6 1.4,4.6 3.6,6.2 2.2,1.6 5.4,2.4 9.6,2.4 4.2,0 7.2,-1 9.4,-3 1.8,-1.4 2.6,-3.4 2.8,-5.8 l 0,-31.6 17.2,0 0,31.2 z"
   id="path4044"
   inkscape:connector-curvature="0" /><path
   style="fill:#2b4957"
   d="m 472.1928,924.53597 0,37.4 18.2,0 0,-45.2 -26,0 -3.6,8.2 -4.8,-8 -25.2,0 0,45 c 0,0 6.2,0 18.6,0 l 0,-37.4 11.4,16.8 11.4,-16.8 z"
   id="path4042"
   inkscape:connector-curvature="0" /><path
   style="fill:#2b4957"
   d="m 488.0178,987.77002 c -0.2,6.80004 -6,13.40008 -17.2,19.60008 -4.6,2.6 -10.2,5 -16.6,7.2 l 0,20.2 -18.4,-10 0,-47.00012 c 6,0 12,0 18.2,0 15.8,0 24.8,0.4 27.2,1 4.8,1.4 7.2,4.20002 6.8,9.00004 z"
   id="path4040"
   inkscape:connector-curvature="0" /><path
   style="fill:#ffffff;fill-opacity:1"
   d="m 469.8178,987.37002 c -0.6,-1.4 -1.2,-2.2 -1.4,-2.4 -0.6,-0.60002 -1.2,-1.00002 -1.8,-1.60002 -0.8,-0.6 -2.8,-0.8 -6,-0.8 -2.2,0 -4.2,0 -6.4,0 l 0,24.8001 c 5,-1 9,-3.6 12,-7.60002 2.6,-3.2 3.8,-6.80002 3.8,-10.40004 0,-0.6 0,-1.40002 -0.2,-2.00002 z"
   id="path3156"
   inkscape:connector-curvature="0" />
   
   
   <path
   style="fill:#2b4957"
   d="m 480.02703,436.89013 c -5.6,4 -12.00001,6 -19,5.99999 -8.6,10e-6 -16,-2.59999 -22.80001,-7.79999 -6.59999,-5.40001 -9.8,-11.4 -9.79999,-18 0,-5.8 2.59999,-11.00001 8.19999,-15.6 5.40001,-3.8 11.40001,-5.8 17.8,-5.8 8.40001,0 15.80001,3 22.4,8.6 6.40001,5.79999 9.8,12 9.8,18.79999 0,5.20001 -2.2,9.80001 -6.59999,13.80001 z"
   id="path4036"
   inkscape:connector-curvature="0" /><path
   style="fill:#ffffff;fill-opacity:1"
   d="m 441.1655,405.239 c -0.8,0.59999 -1.19999,1.4 -1.2,2.6 0,2.8 2,6.4 5.8,10.79999 3.8,4.40001 8,8.20001 13,11.4 5.20003,3.59997 9.79999,5.40001 13.4,5.40001 1.6,0 3,-0.4 4.2,-1.2 1,-0.8 1.4,-2 1.4,-3.40001 0,-2.99999 -2,-6.6 -6,-10.99999 -3.8,-4.2 -8.2,-7.8 -13.4,-11 -5.4,-3.2 -9.8,-4.8 -13.2,-4.8 -1.6,-10e-6 -3,0.4 -4,1.2 z"
   id="path4034"
   inkscape:connector-curvature="0" /><path
   style="fill:#2b4957"
   d="m 489.11782,466.82087 c -0.4,6.8 -6.2,13.4 -17.4,19.6 -4.6,2.6 -10.2,5 -16.6,7.2 l 0,20.2 -18.4,-10 0,-47 c 6,0 12.2,0 18.2,0 15.8,0 24.8,0.4 27.2,1 4.8,1.4 7.2,4.2 7,9 z"
   id="path4032"
   inkscape:connector-curvature="0" /><path
   style="fill:#ffffff;fill-opacity:1"
   d="m 470.71782,466.62087 c -0.6,-1.6 -1.2,-2.4 -1.4,-2.6 -0.6,-0.6 -1.2,-1 -1.8,-1.6 -0.8,-0.6 -2.8,-0.8 -6,-0.8 -2.2,0 -4.2,0 -6.4,0 l 0,24.8 c 5,-1 9.2,-3.6 12,-7.6 2.6,-3.2 3.8,-6.8 3.8,-10.4 0,-0.6 0,-1.4 -0.2,-1.8 z"
   id="path4030"
   inkscape:connector-curvature="0" /><path
   style="fill:#2b4957"
   d="m 488.26782,566.02983 0,6.2 -53,0 0.2,-45 38.8,0 0,5 -17.6,0 0,7.4 12.2,0 0,5.4 -12.2,0 0,21 31.6,0 z"
   id="path4028"
   inkscape:connector-curvature="0" /><path
   style="fill:#2b4957"
   d="m 455.61782,604.26379 0,29.2 -20,0 0,-45.2 20,0 12.4,23.8 0,-23.8 18.4,0 0,45.2 -18.6,0 0,-5.4 -12.2,-23.8 z"
   id="path3162"
   inkscape:connector-curvature="0" />
  </g><g
   inkscape:groupmode="layer"
   id="layer5"
   inkscape:label="help text"
   sodipodi:insensitive="true"
   style="display:none"><text
     xml:space="preserve"
     style="font-size:62.5px;font-style:normal;font-variant:normal;font-weight:normal;font-stretch:normal;text-align:start;line-height:100%;letter-spacing:0px;word-spacing:0px;writing-mode:tb-rl;text-anchor:start;fill:#000000;fill-opacity:1;stroke:none;font-family:Sans;-inkscape-font-specification:Sans"
     x="460.4411"
     y="417.38422"
     id="text4051"
     sodipodi:linespacing="100%"><tspan
       sodipodi:role="line"
       x="417.38422"
       y="460.4411"
       id="tspan4059"
       style="line-height:100%">OPEN JUMP</tspan></text>
</g>
 </g></g></svg>