<?xml version="1.0" encoding="UTF-8" standalone="no"?>
<!-- Created with Inkscape (http://www.inkscape.org/) -->

<svg
   xmlns:dc="http://purl.org/dc/elements/1.1/"
   xmlns:cc="http://creativecommons.org/ns#"
   xmlns:rdf="http://www.w3.org/1999/02/22-rdf-syntax-ns#"
   xmlns:svg="http://www.w3.org/2000/svg"
   xmlns="http://www.w3.org/2000/svg"
   xmlns:sodipodi="http://sodipodi.sourceforge.net/DTD/sodipodi-0.dtd"
   xmlns:inkscape="http://www.inkscape.org/namespaces/inkscape"
   id="svg3004"
   version="1.1"
   inkscape:version="0.48.2 r9819"
   width="1052.3622"
   height="744.09446"
   xml:space="preserve"
   sodipodi:docname="installer_logo.svg"><metadata
     id="metadata3010"><rdf:RDF><cc:Work
         rdf:about=""><dc:format>image/svg+xml</dc:format><dc:type
           rdf:resource="http://purl.org/dc/dcmitype/StillImage" /><dc:title></dc:title></cc:Work></rdf:RDF></metadata><defs
     id="defs3008" /><sodipodi:namedview
     pagecolor="#ffffff"
     bordercolor="#666666"
     borderopacity="1"
     objecttolerance="10"
     gridtolerance="10"
     guidetolerance="10"
     inkscape:pageopacity="0"
     inkscape:pageshadow="2"
     inkscape:window-width="1404"
     inkscape:window-height="843"
     id="namedview3006"
     showgrid="false"
     inkscape:zoom="1.84"
     inkscape:cx="545.85445"
     inkscape:cy="414.79452"
     inkscape:window-x="20"
     inkscape:window-y="0"
     inkscape:window-maximized="0"
     inkscape:current-layer="layer1" /><g
     inkscape:groupmode="layer"
     id="layer1"
     inkscape:label="frame"><rect
       style="fill:#ffffff;fill-opacity:1;stroke:#000000;stroke-width:0.35244113;stroke-linejoin:round;stroke-miterlimit:4;stroke-opacity:1;stroke-dasharray:none"
       id="rect3837"
       width="99.14756"
       height="399.14755"
       x="457.69135"
       y="168.0248" /></g><g
     inkscape:groupmode="layer"
     id="layer2"
     inkscape:label="kangaroo"><path
       d="m 516.8115,216.69678 c -1.24034,-0.44319 -10.8986,-2.30356 -10.36685,-4.07578 0.70886,-2.39226 -1.86078,-6.46831 -2.21514,-8.86057 -0.17725,-0.8861 -1.59497,-4.51897 -2.30383,-4.78477 -4.16434,-1.50628 -6.9111,-8.86057 -8.59462,-7.17704 -0.26595,0.26581 -16.65791,7.35429 -20.29077,4.60753 -2.48095,-1.94933 -4.43028,-3.72142 -6.11381,-6.55686 -1.06323,-1.77209 0.44305,-3.54418 0.88611,-2.0379 0.79742,2.6582 3.10111,6.02512 6.29106,6.55673 3.63273,0.53175 6.73398,-1.06322 9.65784,-3.18981 1.68353,-1.24047 6.20251,-4.43028 7.97459,-7.35414 2.21515,-3.72156 9.65799,-9.21507 14.17682,-8.2404 3.633,0.79755 6.99993,3.10125 10.8986,8.1517 0.70899,0.97481 2.92413,3.36706 4.51897,4.51898 0.6203,0.53161 4.07578,0.44305 4.34159,-0.3545 0.17711,-0.70886 0.9748,-1.06322 0.0887,-1.24047 -1.15191,-0.17712 -2.39252,-1.41759 -2.39252,-1.59498 0,-0.35422 -0.62031,-0.53161 -0.62031,-1.06322 -0.0884,-0.97453 0.62031,-1.32903 1.418,-0.97453 0.44292,0.17711 1.94906,0.88597 2.39225,1.06322 0.79742,0.53162 2.12645,1.59484 2.65806,2.48095 0.17712,0.26581 1.77222,0.3545 1.94934,0.62017 0.2658,0.17725 1.06322,0.6203 1.41772,0.88611 0.79742,0.44305 3.10125,2.3037 3.81025,2.39239 0.35423,0 0.26553,1.15178 -0.44319,1.50628 -0.62031,0.26581 -3.10125,0.53161 -3.54417,0.26581 -0.3545,-0.35437 -1.68353,-0.35437 -2.39253,-0.17725 -0.70873,0.17725 -3.54417,1.94933 -4.2529,2.56963 -1.86091,1.59484 -3.63286,3.89867 -6.02512,4.78465 -0.44319,0.17725 -2.21514,2.48081 -2.39252,2.74689 -0.26581,0.44292 -2.65806,3.63286 -4.16448,4.1642 -1.50641,0.53189 -2.39239,-0.2658 -2.65806,-1.06322 -0.26594,-0.79715 0.97453,-2.83517 1.50642,-1.59484 0.53134,1.24061 1.41745,0 2.12645,-0.6203 0.79714,-0.79715 1.32903,-3.98709 0.2658,-4.69609 -1.32903,-0.88597 -1.24061,-1.86064 -1.6838,-1.24034 -0.44292,0.53161 -1.9492,1.41772 -2.74648,2.3037 -0.79755,0.79755 -0.709,5.75918 -0.62031,6.55687 0.53162,3.45547 -1.68353,4.5187 3.98737,6.37961 0.62003,0.26581 16.83502,4.9619 15.6831,6.02512 -1.15192,1.06323 -10.8099,-1.24061 -12.22762,-1.68353 z"
       style="fill:#e1822a;fill-opacity:1;fill-rule:nonzero;stroke:none"
       id="path3018"
       inkscape:connector-curvature="0" /></g><g
     inkscape:groupmode="layer"
     id="layer3"
     inkscape:label="text"
     style="display:inline"><path
       inkscape:connector-curvature="0"
       id="path3201"
       style="fill:#336071;fill-opacity:1;fill-rule:nonzero;stroke:none"
       d="m 545.8287,253.50394 c -0.18807,-0.43889 -0.37614,-0.68952 -0.4389,-0.75227 -0.18806,-0.18807 -0.37613,-0.31348 -0.5642,-0.50146 -0.25082,-0.18816 -0.87779,-0.25081 -1.88069,-0.25081 -0.68971,0 -1.31667,0 -2.00619,0 0,0 0,7.77375 0,7.77375 1.5673,-0.31338 2.82122,-1.12841 3.76157,-2.38214 0.81483,-1.0031 1.19116,-2.13169 1.19116,-3.26011 0,-0.18807 0,-0.43889 -0.0628,-0.62696 z m 5.705,0.12551 c -0.0628,2.13151 -1.88088,4.20026 -5.39162,6.1437 -1.44179,0.81503 -3.19717,1.5673 -5.20336,2.25702 0,0 0,6.33196 0,6.33196 0,0 -5.76776,-3.13461 -5.76776,-3.13461 0,0 0,-14.73277 0,-14.73277 1.88069,0 3.76157,0 5.705,0 4.95274,0 7.77376,0.12541 8.52623,0.31347 1.50455,0.4389 2.25682,1.31648 2.13151,2.82123 z m -23.57229,-0.68971 c 0,0 0,11.72338 0,11.72338 0,0 5.70501,0 5.70501,0 0,0 0,-14.16837 0,-14.16837 0,0 -8.1499,0 -8.1499,0 0,0 -1.12861,2.5703 -1.12861,2.5703 0,0 -1.50455,-2.50764 -1.50455,-2.50764 0,0 -7.89926,0 -7.89926,0 0,0 0,14.10571 0,14.10571 0,0 1.94363,0 5.83051,0 0,0 0,-11.72338 0,-11.72338 0,0 3.5733,5.26611 3.5733,5.26611 0,0 3.5735,-5.26611 3.5735,-5.26611 z m -14.92056,7.33506 c 0,0.94034 -0.37632,1.81812 -1.1286,2.5704 -1.37923,1.44198 -3.88688,2.19425 -7.46038,2.19425 -2.57039,0 -4.45108,-0.62696 -5.64224,-1.81831 -0.75228,-0.75227 -1.19117,-1.62986 -1.25392,-2.50764 0,0 0,-10.21875 0,-10.21875 0,0 2.1317,0 2.1317,0 0,0 0,9.96812 0,9.96812 0,0.81502 0.43869,1.44199 1.1284,1.94343 0.68953,0.50146 1.69263,0.75228 3.00911,0.75228 1.31667,0 2.25701,-0.31338 2.94672,-0.94034 0.56402,-0.43889 0.81484,-1.06566 0.87759,-1.81813 0,0 0,-9.90536 0,-9.90536 0,0 5.39162,0 5.39162,0 0,0 0,9.78005 0,9.78005 z m -17.24032,-9.71739 c 0,0 -0.0628,10.72048 -0.0628,10.72048 0,0.56421 -0.1255,1.06566 -0.37632,1.56731 -0.18788,0.62695 -0.62696,1.06565 -1.19098,1.44198 -0.62695,0.37594 -1.31666,0.62677 -2.19426,0.68952 -0.37632,0 -0.68971,0.0628 -1.06585,0.0628 -1.63005,0 -3.19736,-0.37633 -4.63915,-1.00329 -1.63006,-0.75227 -3.32268,-2.00599 -5.01548,-3.69861 0,0 1.37942,-1.19136 1.37942,-1.19136 0.31338,0.31357 0.62696,0.62696 0.87759,0.94034 0.62696,0.5644 1.19117,1.06605 1.75537,1.37943 0.81503,0.50145 1.56731,0.75228 2.25682,0.75228 0.37634,0 0.68972,-0.0628 1.0031,-0.18807 0.56421,-0.18807 0.87779,-0.50165 1.00329,-0.94035 0.12532,-0.50164 0.18788,-1.50455 0.18788,-3.00929 0,-0.18807 0,-1.19116 0,-3.07184 0,-1.63006 0,-3.07196 0,-4.51394 0,0 6.08133,0.0626 6.08133,0.0626 z" /><path
       id="path3203"
       style="fill:#336071;fill-opacity:1;fill-rule:nonzero;stroke:none"
       d="m 523.7523,233.98073 c 0,0 0,9.15298 0,9.15298 0,0 -6.26921,0 -6.26921,0 0,0 0,-14.16837 0,-14.16837 0,0 6.26921,0 6.26921,0 0,0 3.88687,7.46047 3.88687,7.46047 0,0 0,-7.46047 0,-7.46047 0,0 5.76757,0 5.76757,0 0,0 0,14.16837 0,14.16837 0,0 -5.83032,0 -5.83032,0 0,0 0,-1.69261 0,-1.69261 0,0 -3.82412,-7.46037 -3.82412,-7.46037 z m -7.39772,7.14699 c 0,0 0,1.94343 0,1.94343 0,0 -16.61346,0 -16.61346,0 0,0 0.0627,-14.10581 0.0627,-14.10581 0,0 12.16229,0 12.16229,0 0,0 0,1.5673 0,1.5673 0,0 -5.51693,0 -5.51693,0 0,0 0,2.31967 0,2.31967 0,0 3.82421,0 3.82421,0 0,0 0,1.69262 0,1.69262 0,0 -3.82421,0 -3.82421,0 0,0 0,6.58279 0,6.58279 0,0 9.90535,0 9.90535,0 z m -23.1334,-9.09043 c -0.18806,-0.50165 -0.37613,-0.75228 -0.43879,-0.81503 -0.18817,-0.18807 -0.37613,-0.31348 -0.5643,-0.50146 -0.25073,-0.18816 -0.87769,-0.25081 -1.88079,-0.25081 -0.68952,0 -1.31648,0 -2.0061,0 0,0 0,7.77375 0,7.77375 1.5673,-0.31338 2.88388,-1.12841 3.76157,-2.38214 0.81493,-1.0031 1.19107,-2.13169 1.19107,-3.26011 0,-0.18807 0,-0.43889 -0.0626,-0.5642 z m 5.76767,0.0628 c -0.12541,2.13151 -1.94345,4.20026 -5.45418,6.1437 -1.4419,0.81503 -3.19737,1.5673 -5.20347,2.25702 0,0 0,6.33196 0,6.33196 0,0 -5.76766,-3.13461 -5.76766,-3.13461 0,0 0,-14.73277 0,-14.73277 1.88069,0 3.82413,0 5.70491,0 4.95273,0 7.77386,0.1254 8.52623,0.31347 1.50455,0.4389 2.25692,1.31648 2.19417,2.82123 z m -31.72219,-0.18807 c -0.25072,0.18807 -0.37613,0.4387 -0.37613,0.81503 0,0.87759 0.62686,2.006 1.81802,3.38523 1.19117,1.37924 2.50774,2.5704 4.07505,3.5735 1.62996,1.12841 3.07185,1.69261 4.20026,1.69261 0.50164,0 0.94044,-0.12531 1.31668,-0.37613 0.31337,-0.25082 0.43879,-0.62677 0.43879,-1.06566 0,-0.94035 -0.62696,-2.06895 -1.88079,-3.44799 -1.19116,-1.31667 -2.5704,-2.44508 -4.20035,-3.44818 -1.69272,-1.00309 -3.07196,-1.50474 -4.13771,-1.50474 -0.50154,0 -0.94044,0.12551 -1.25382,0.37633 z m 12.28769,9.90527 c -1.75546,1.25391 -3.76157,1.88087 -5.95572,1.88087 -2.69582,0 -5.0154,-0.81503 -7.147,-2.44508 -2.06885,-1.69262 -3.07185,-3.5735 -3.07185,-5.64225 0,-1.81812 0.81503,-3.44818 2.57031,-4.88998 1.69271,-1.19116 3.57349,-1.81812 5.57959,-1.81812 2.63305,0 4.95272,0.94034 7.02148,2.69571 2.00619,1.81813 3.07194,3.76157 3.07194,5.89308 0,1.63005 -0.68961,3.07204 -2.06875,4.32577 z"
       inkscape:connector-curvature="0" /><g
       style="display:inline"
       id="g3014"
       transform="matrix(1.25,0,0,1.25,0,744.09446)" /><text
       xml:space="preserve"
       style="font-size:48.05148315px;font-style:normal;font-weight:normal;line-height:125%;letter-spacing:0px;word-spacing:0px;writing-mode:lr-tb;fill:#336071;fill-opacity:1;stroke:none;font-family:Sans"
       x="447.63416"
       y="290.61606"
       id="text3847"
       sodipodi:linespacing="125%"
       transform="scale(1.201287,0.83244051)"><tspan
         sodipodi:role="line"
         id="tspan3849"
         x="447.63416"
         y="290.61606"
         style="font-size:24.02574158px;font-weight:bold;fill:#336071;fill-opacity:1;-inkscape-font-specification:Sans Bold">-</tspan></text>
</g><g
     id="g3012"
     inkscape:groupmode="layer"
     inkscape:label="openjump_logo"
     transform="matrix(1.25,0,0,-1.25,0,744.09446)"
     style="display:none"
     sodipodi:insensitive="true" /></svg>